<?xml version="1.0" encoding="utf-8"?>
<!-- Generator: Adobe Illustrator 19.0.0, SVG Export Plug-In . SVG Version: 6.00 Build 0)  -->
<svg version="1.1" xmlns="http://www.w3.org/2000/svg" xmlns:xlink="http://www.w3.org/1999/xlink" x="0px" y="0px"
	 viewBox="0 0 236 505.6" style="enable-background:new 0 0 236 505.6;" xml:space="preserve">
<style type="text/css">
	.st0{display:none;}
	.st1{display:inline;fill:#EF6A8D;}
	.st2{fill:#FFFFFF;}
	.st3{fill:#EBF7F7;}
	.st4{fill:#7BAD82;}
	.st5{fill:#77676D;}
	.st6{fill:#382D32;}
	.st7{fill:#840C31;}
	.st8{fill:#EDDEB4;}
	.st9{fill:#EEFFF1;}
	.st10{opacity:0.7;clip-path:url(#XMLID_106_);}
	.st11{opacity:0.7;}
	.st12{clip-path:url(#XMLID_107_);fill:#EBF7F7;}
</style>
<g id="Layer_2" class="st0">
	<rect id="XMLID_49_" x="-204.4" y="4.5" class="st1" width="722.7" height="533"/>
</g>
<g id="straw">
	
		<rect id="XMLID_14_" x="140.5" y="32.1" transform="matrix(0.9664 0.257 -0.257 0.9664 61.0383 -31.698)" class="st2" width="22.6" height="371.2"/>
</g>
<g id="cup">
	<g id="XMLID_1_">
		<defs>
			<polygon id="XMLID_4_" points="118,219.6 6.7,219.6 38,505.6 118,505.6 198,505.6 229.3,219.6 			"/>
		</defs>
		<use xlink:href="#XMLID_4_"  style="overflow:visible;opacity:0.7;fill:#EBF7F7;"/>
		<clipPath id="XMLID_105_">
			<use xlink:href="#XMLID_4_"  style="overflow:visible;opacity:0.7;"/>
		</clipPath>
	</g>
	<path id="XMLID_13_" class="st3" d="M229.5,219.6H6.5c-3.6,0-6.5-2.9-6.5-6.5v-1c0-3.6,2.9-6.5,6.5-6.5h223c3.6,0,6.5,2.9,6.5,6.5
		v1C236,216.7,233.1,219.6,229.5,219.6z"/>
</g>
<g id="drink">
	<polygon id="XMLID_2_" class="st4" points="23,323.6 42.2,498.6 193.5,498.6 212.7,323.6 	"/>
</g>
<g id="tapioca">
	<g id="XMLID_50_">
		<circle id="XMLID_3_" class="st5" cx="67.4" cy="446.5" r="8.1"/>
		<circle id="XMLID_5_" class="st5" cx="131.5" cy="457" r="10"/>
		<circle id="XMLID_6_" class="st5" cx="103" cy="438.6" r="10.6"/>
		<circle id="XMLID_7_" class="st5" cx="160.5" cy="486.7" r="9"/>
		<circle id="XMLID_8_" class="st5" cx="169.4" cy="462.4" r="7.5"/>
		<circle id="XMLID_9_" class="st5" cx="62.8" cy="487.2" r="10.8"/>
		<circle id="XMLID_10_" class="st5" cx="108.1" cy="483.7" r="8.1"/>
		<circle id="XMLID_11_" class="st5" cx="186" cy="430.6" r="10.6"/>
	</g>
</g>
<g id="jelly">
	
		<rect id="XMLID_94_" x="88.3" y="453.8" transform="matrix(0.6838 -0.7297 0.7297 0.6838 -317.1167 219.8793)" class="st6" width="13.7" height="44"/>
	
		<rect id="XMLID_96_" x="113.6" y="469.6" transform="matrix(-0.1992 0.98 -0.98 -0.1992 620.4646 464.4384)" class="st6" width="13.7" height="32.2"/>
	
		<rect id="XMLID_97_" x="168.1" y="440.1" transform="matrix(0.8429 0.538 -0.538 0.8429 280.2702 -20.3107)" class="st6" width="13.7" height="59.5"/>
	
		<rect id="XMLID_98_" x="122.8" y="447" transform="matrix(-0.7468 0.6651 -0.6651 -0.7468 540.8102 737.3087)" class="st6" width="14.5" height="49.1"/>
	
		<rect id="XMLID_99_" x="155.9" y="424.7" transform="matrix(-0.518 -0.8554 0.8554 -0.518 -133.8195 819.6711)" class="st6" width="16.1" height="45.7"/>
	
		<rect id="XMLID_102_" x="42.1" y="444.2" transform="matrix(-0.9644 0.2645 -0.2645 -0.9644 218.1706 900.2846)" class="st6" width="12.8" height="41.4"/>
	
		<rect id="XMLID_100_" x="68" y="462.6" transform="matrix(-0.6122 -0.7907 0.7907 -0.6122 -260.6771 834.9041)" class="st6" width="12.8" height="37.5"/>
	
		<rect id="XMLID_95_" x="169.8" y="462.5" transform="matrix(0.8027 -0.5964 0.5964 0.8027 -250.5721 199.8028)" class="st6" width="13.8" height="32.2"/>
	
		<rect id="XMLID_101_" x="70.8" y="430.5" transform="matrix(0.1946 0.9809 -0.9809 0.1946 504.6707 287.6243)" class="st6" width="12.8" height="41.4"/>
	
		<rect id="XMLID_103_" x="107.1" y="414.8" transform="matrix(-0.5864 0.81 -0.81 -0.5864 532.8241 598.9003)" class="st6" width="12.8" height="41.4"/>
</g>
<g id="RED_BEANS">
	<g id="XMLID_55_">
		<path id="XMLID_57_" class="st7" d="M78.7,482.3c-4.2,6.4-0.6,10.8-7.6,11c-7,0.2-7.3-12.2-3.1-18.7c4.2-6.4,16.7-9.4,18.9-4.9
			C90,475.8,82.9,475.9,78.7,482.3z"/>
		<path id="XMLID_56_" class="st8" d="M77.4,481.7c-1.5,2.3-0.9,3.4-2.7,4c-1.7,0.6-0.9-3.3,0.6-5.6c1.5-2.3,4.8-4.1,5.1-2.9
			C80.7,478.8,78.9,479.4,77.4,481.7z"/>
	</g>
	<g id="XMLID_79_">
		<path id="XMLID_81_" class="st7" d="M152.3,472.8c3.8,5.1,7.7,3.9,6.4,9c-1.3,5.1-10.4,1.4-14.2-3.7c-3.8-5.1-3.3-15.1,0.4-15.2
			C149.9,462.6,148.5,467.7,152.3,472.8z"/>
		<path id="XMLID_80_" class="st8" d="M151.5,473.5c1.4,1.8,2.3,1.7,2.3,3.2c0,1.4-2.6-0.4-3.9-2.2c-1.4-1.8-2-4.8-1-4.6
			C150.2,470.3,150.2,471.7,151.5,473.5z"/>
	</g>
	<g id="XMLID_93_">
		<g id="XMLID_52_">
			<path id="XMLID_51_" class="st7" d="M63.8,467.4c0.9,7.8,7.7,8.8,1.2,13.7c-6.5,4.9-16.4-4.5-17.3-12.3s8.7-18.7,14.2-16.7
				C69.5,454.7,62.8,459.6,63.8,467.4z"/>
			<path id="XMLID_53_" class="st8" d="M62,467.8c0.3,2.8,1.7,3.2,0.5,4.9c-1.2,1.6-3.4-1.9-3.8-4.7s1.4-6.5,2.6-5.7
				C62.9,463.4,61.7,465,62,467.8z"/>
		</g>
		<g id="XMLID_58_">
			<path id="XMLID_60_" class="st7" d="M105.3,481.1c-1.4-7.1-8.7-7.2-2-12.4c6.7-5.2,17.8,2.4,19.2,9.5s-8.3,18-14.3,16.8
				C99.8,493.3,106.7,488.2,105.3,481.1z"/>
			<path id="XMLID_59_" class="st8" d="M107.2,480.6c-0.5-2.5-2-2.8-0.8-4.4c1.2-1.6,3.8,1.4,4.3,3.9c0.5,2.5-1.2,6.1-2.5,5.5
				C106.4,484.7,107.7,483.1,107.2,480.6z"/>
		</g>
		<g id="XMLID_82_">
			<path id="XMLID_84_" class="st7" d="M118.2,417.3c-1.5-7.3-8-7.7-2.2-12.8c5.8-5.1,15.9,3,17.3,10.3s-6.9,18.2-12.3,16.8
				C113.7,429.6,119.7,424.6,118.2,417.3z"/>
			<path id="XMLID_83_" class="st8" d="M119.9,416.8c-0.5-2.6-1.9-2.9-0.8-4.6c1-1.6,3.4,1.5,3.9,4.1s-0.9,6.2-2,5.5
				C119.3,421,120.4,419.4,119.9,416.8z"/>
		</g>
		<g id="XMLID_67_">
			<path id="XMLID_69_" class="st7" d="M87.3,474.4c-1.5-7.5-7.1-8.1-2.3-13.2c4.8-5,13.8,3.6,15.3,11.1s-5.3,18.4-10,16.8
				C83.8,486.9,88.8,481.9,87.3,474.4z"/>
			<path id="XMLID_68_" class="st8" d="M88.7,473.9c-0.5-2.7-1.7-3.1-0.9-4.7c0.8-1.6,3,1.7,3.5,4.4c0.5,2.7-0.6,6.3-1.6,5.6
				C88.3,478.2,89.2,476.6,88.7,473.9z"/>
		</g>
		<g id="XMLID_88_">
			<path id="XMLID_90_" class="st7" d="M167.3,438.4c-1.5-7.5-7.1-8.1-2.3-13.2c4.8-5,13.8,3.6,15.3,11.1c1.5,7.5-5.3,18.4-10,16.8
				C163.8,450.9,168.8,445.9,167.3,438.4z"/>
			<path id="XMLID_89_" class="st8" d="M168.7,437.9c-0.5-2.7-1.7-3.1-0.9-4.7c0.8-1.6,3,1.7,3.5,4.4c0.5,2.7-0.6,6.3-1.6,5.6
				C168.3,442.2,169.2,440.6,168.7,437.9z"/>
		</g>
		<g id="XMLID_64_">
			<path id="XMLID_66_" class="st7" d="M82,443c1.7-8.7,7.9-9.4,2.7-15.2c-5.3-5.8-15.3,4.2-17,12.9c-1.7,8.7,5.7,21.1,10.9,19.2
				C85.7,457.4,80.2,451.7,82,443z"/>
			<path id="XMLID_65_" class="st8" d="M80.5,442.5c0.6-3.1,1.9-3.5,1-5.4c-0.9-1.9-3.3,1.9-3.9,5s0.6,7.2,1.7,6.4
				C80.8,447.5,79.8,445.6,80.5,442.5z"/>
		</g>
		<g id="XMLID_61_">
			<path id="XMLID_63_" class="st7" d="M132.8,478.4c6.1-4.7,4.1-10,10.7-8c6.7,2,3,13.9-3.1,18.7s-18.9,3.5-19.5-1.4
				C120.1,480.9,126.8,483.1,132.8,478.4z"/>
			<path id="XMLID_62_" class="st8" d="M133.8,479.4c2.2-1.7,2-2.9,3.8-2.9c1.8,0-0.2,3.4-2.3,5.1c-2.2,1.7-5.9,2.3-5.7,1.1
				C129.8,481,131.7,481.1,133.8,479.4z"/>
		</g>
		<g id="XMLID_76_">
			<path id="XMLID_78_" class="st7" d="M180.8,462.4c6.1-4.7,4.1-10,10.7-8c6.7,2,3,13.9-3.1,18.7s-18.9,3.5-19.5-1.4
				C168.1,464.9,174.8,467.1,180.8,462.4z"/>
			<path id="XMLID_77_" class="st8" d="M181.8,463.4c2.2-1.7,2-2.9,3.8-2.9c1.8,0-0.2,3.4-2.3,5.1c-2.2,1.7-5.9,2.3-5.7,1.1
				C177.8,465,179.7,465.1,181.8,463.4z"/>
		</g>
		<g id="XMLID_70_">
			<path id="XMLID_72_" class="st7" d="M112.2,447.2c4.6,6.2,9.9,4.3,7.7,10.9c-2.2,6.6-14,2.7-18.6-3.5c-4.6-6.2-3.1-18.9,1.8-19.5
				C110,434.4,107.6,441.1,112.2,447.2z"/>
			<path id="XMLID_71_" class="st8" d="M111.1,448.2c1.6,2.2,2.9,2,2.8,3.9c-0.1,1.8-3.4-0.2-5-2.4s-2.2-5.9-1-5.7
				C109.6,444.2,109.5,446,111.1,448.2z"/>
		</g>
		<g id="XMLID_85_">
			<path id="XMLID_87_" class="st7" d="M155.2,450.2c4.6,6.2,9.9,4.3,7.7,10.9c-2.2,6.6-14,2.7-18.6-3.5c-4.6-6.2-3.1-18.9,1.8-19.5
				C153,437.4,150.6,444.1,155.2,450.2z"/>
			<path id="XMLID_86_" class="st8" d="M154.1,451.2c1.6,2.2,2.9,2,2.8,3.9c-0.1,1.8-3.4-0.2-5-2.4s-2.2-5.9-1-5.7
				C152.6,447.2,152.5,449,154.1,451.2z"/>
		</g>
		<g id="XMLID_73_">
			<path id="XMLID_75_" class="st7" d="M180.2,484.2c4.6,6.2,9.9,4.3,7.7,10.9c-2.2,6.6-14,2.7-18.6-3.5c-4.6-6.2-3.1-18.9,1.8-19.5
				C178,471.4,175.6,478.1,180.2,484.2z"/>
			<path id="XMLID_74_" class="st8" d="M179.1,485.2c1.6,2.2,2.9,2,2.8,3.9c-0.1,1.8-3.4-0.2-5-2.4s-2.2-5.9-1-5.7
				C177.6,481.2,177.5,483,179.1,485.2z"/>
		</g>
		<g id="XMLID_54_">
			<path id="XMLID_92_" class="st7" d="M55.3,424.5c5.5,5.7,11.4,2.3,9.3,10.1c-2.2,7.8-15.8,6.4-21.2,0.7
				c-5.5-5.7-4.4-20.1,1.2-21.9C52.2,410.9,49.8,418.8,55.3,424.5z"/>
			<path id="XMLID_91_" class="st8" d="M54.2,425.8c2,2,3.3,1.5,3.4,3.6c0,2-3.9,0.6-5.8-1.4c-2-2-2.8-6-1.4-6.1
				C52.2,421.8,52.2,423.8,54.2,425.8z"/>
		</g>
	</g>
</g>
<g id="glans">
	<path id="XMLID_12_" class="st9" d="M56.3,409.1l-12.6,1.7c-1.9,0.3-3.6-1.1-3.9-3l-14-104c-0.3-1.9,1.1-3.6,3-3.9l12.6-1.7
		c1.9-0.3,3.6,1.1,3.9,3l14,104C59.6,407,58.2,408.8,56.3,409.1z"/>
	<circle id="XMLID_27_" class="st9" cx="52.2" cy="424.8" r="8.8"/>
</g>
<g id="dop">
	<g id="XMLID_26_">
		<defs>
			<rect id="XMLID_25_" x="6.7" y="49.6" width="222.7" height="170"/>
		</defs>
		<clipPath id="XMLID_106_">
			<use xlink:href="#XMLID_25_"  style="overflow:visible;"/>
		</clipPath>
		<g id="XMLID_24_" class="st10">
			<defs>
				<circle id="XMLID_22_" class="st11" cx="118" cy="214" r="111.4"/>
			</defs>
			<use xlink:href="#XMLID_22_"  style="overflow:visible;fill:#EBF7F7;"/>
			<clipPath id="XMLID_107_">
				<use xlink:href="#XMLID_22_"  style="overflow:visible;"/>
			</clipPath>
			<rect id="XMLID_23_" x="6.7" class="st12" width="222.7" height="222.7"/>
		</g>
	</g>
	<circle id="XMLID_15_" class="st9" cx="42.2" cy="183.5" r="8.4"/>
	<path id="XMLID_18_" class="st9" d="M51,170.6c4.8-28,31.6-50,63.9-50c4.8,0,9.5,0.6,14.1,1.6c-9-4.4-19.3-7.1-30.3-7.1
		c-34.4,0-62.5,25.5-64.5,55.5H51z"/>
</g>
</svg>
